<svg width="437" height="377" viewBox="0 0 437 377" fill="none" xmlns="http://www.w3.org/2000/svg">
<path d="M364.167 204.208H291.333C291.333 221.487 274.946 235.625 254.917 235.625H182.083C162.054 235.625 145.667 221.487 145.667 204.208H72.8333L36.4167 282.75V314.167C36.4167 331.446 52.8042 345.583 72.8333 345.583H364.167C384.196 345.583 400.583 331.446 400.583 314.167V282.75L364.167 204.208ZM109.25 314.167C93.0446 314.167 84.8508 297.202 96.3221 287.305C107.793 277.409 127.458 284.478 127.458 298.458C127.458 307.098 119.265 314.167 109.25 314.167ZM182.083 314.167C165.878 314.167 157.684 297.202 169.155 287.305C180.627 277.409 200.292 284.478 200.292 298.458C200.292 307.098 192.098 314.167 182.083 314.167ZM254.917 314.167C238.711 314.167 230.517 297.202 241.989 287.305C253.46 277.409 273.125 284.478 273.125 298.458C273.125 307.098 264.931 314.167 254.917 314.167ZM327.75 314.167C311.545 314.167 303.351 297.202 314.822 287.305C326.293 277.409 345.958 284.478 345.958 298.458C345.958 307.098 337.765 314.167 327.75 314.167ZM327.75 157.083V47.125H109.25V157.083H54.625V188.5H382.375V157.083H327.75ZM145.667 78.5417H291.333V94.25H145.667V78.5417ZM145.667 109.958H254.917V125.667H145.667" fill="#0D9488"/>
</svg>
